<?xml version="1.0" encoding="utf-8"?>
<!-- Generator: Adobe Illustrator 26.0.0, SVG Export Plug-In . SVG Version: 6.00 Build 0)  -->
<svg version="1.1" id="Capa_1" xmlns="http://www.w3.org/2000/svg" xmlns:xlink="http://www.w3.org/1999/xlink" x="0px" y="0px"
	 viewBox="0 0 600 600" style="enable-background:new 0 0 600 600;" xml:space="preserve">
<style type="text/css">
	.st0{fill:#B20000;}
</style>
<path class="st0" d="M205.3,534.8c0-156.3,0-312.7,0-469c20.2,4.1,30.2,6.1,50.4,9.9c25.2,78.5,51.4,156.3,79.1,233.5
	c0-73.2,0-146.4,0-219.6c23.9,3.9,35.9,5.7,59.8,9.2c0,134.4,0,268.8,0,403.2c-19.4,2.8-29.1,4.3-48.4,7.3
	c-27.6-76.9-53.9-154.4-79.1-232.6c0,82,0,164.1,0,246.1C242.4,527.4,230,529.8,205.3,534.8z"/>
</svg>
