<?xml version="1.0" encoding="utf-8"?>
<!-- Generator: Adobe Illustrator 26.0.0, SVG Export Plug-In . SVG Version: 6.00 Build 0)  -->
<svg version="1.1" id="Capa_1" xmlns="http://www.w3.org/2000/svg" xmlns:xlink="http://www.w3.org/1999/xlink" x="0px" y="0px"
	 viewBox="0 0 467.4 171.4" style="enable-background:new 0 0 467.4 171.4;" xml:space="preserve">
<style type="text/css">
	.st0{fill:#B20000;}
</style>
<g>
	<g>
		<path class="st0" d="M13,164.7c0-52.7,0-105.4,0-158c6.8,1.4,10.2,2,17,3.3c8.5,26.5,17.3,52.7,26.6,78.7c0-24.7,0-49.3,0-74
			c8.1,1.3,12.1,1.9,20.2,3.1c0,45.3,0,90.6,0,135.9c-6.5,0.9-9.8,1.4-16.3,2.5c-9.3-25.9-18.2-52-26.6-78.4c0,27.6,0,55.3,0,82.9
			C25.5,162.2,21.4,163,13,164.7z"/>
		<path class="st0" d="M96.6,151c0-43.5,0-87,0-130.5c17.5,2.1,35,3.9,52.5,5.3c0,6.7,0,10.1,0,16.9c-9.3-0.5-18.6-1.1-28-1.8
			c0,11.1,0,22.1,0,33.2c8.6,0.2,12.9,0.2,21.6,0.4c0,6.9,0,10.3,0,17.2c-8.6,0.1-12.9,0.1-21.6,0.2c0,13.1,0,26.1,0,39.2
			c9.4-0.7,18.8-1.3,28.3-1.8c0,6.6,0,9.9,0,16.6C131.7,147.1,114.2,148.8,96.6,151z"/>
		<path class="st0" d="M174.5,144c0-33,0-65.9,0-98.9c-7.4-0.3-11.2-0.4-18.6-0.8c0-7.2,0-10.8,0-18.1c20.6,1.4,41.1,2.2,61.7,2.6
			c0,6.9,0,10.3,0,17.2c-7.3-0.1-11-0.1-18.3-0.3c0,32.4,0,64.7,0,97.1C191,143.2,182.8,143.5,174.5,144z"/>
		<path class="st0" d="M229.9,142.4c0-37.8,0-75.6,0-113.4c17,0,34-0.4,51-1c0,6.4,0,9.6,0,16c-8.8,0.2-17.6,0.4-26.4,0.6
			c0,10.3,0,20.5,0,30.8c7.5,0,14.9-0.1,22.4-0.1c0,6.5,0,9.8,0,16.3c-7.5,0-14.9-0.1-22.4-0.1c0,17,0,34.1,0,51.1
			C246.3,142.4,238.1,142.4,229.9,142.4z"/>
		<path class="st0" d="M294.2,144.1c0-38.9,0-77.8,0-116.7c8.2-0.4,16.4-1,24.6-1.6c0,34.5,0,68.9,0,103.4
			c9.4,0.5,18.8,1.1,28.3,1.9c0,6.9,0,10.4,0,17.3C329.4,146.5,311.8,145.1,294.2,144.1z"/>
		<path class="st0" d="M359.5,149.6c0-42.6,0-85.2,0-127.8c8.1-0.9,16.2-2,24.4-3.1c0,44.7,0,89.3,0,134
			C375.7,151.6,367.6,150.5,359.5,149.6z"/>
		<path class="st0" d="M399.3,154.9c0-7,0-10.5,0-17.4c10.8-34.9,20.9-70.1,30.5-105.5c-9.7,1.3-19.3,2.4-29,3.5
			c0-7.7,0-11.5,0-19.2c17.8-2.8,35.6-6,53.4-9.5c0,7,0,10.5,0,17.6c-9.8,38.4-20.2,76.5-31.3,114.3c10.5,1.3,21,2.8,31.5,4.3
			c0,8.7,0,13.1,0,21.9C436,161.1,417.7,157.8,399.3,154.9z"/>
	</g>
</g>
</svg>
