<?xml version="1.0" encoding="utf-8"?>
<!-- Generator: Adobe Illustrator 26.0.0, SVG Export Plug-In . SVG Version: 6.00 Build 0)  -->
<svg version="1.1" id="Capa_1" xmlns="http://www.w3.org/2000/svg" xmlns:xlink="http://www.w3.org/1999/xlink" x="0px" y="0px"
	 viewBox="0 0 467.4 171.4" style="enable-background:new 0 0 467.4 171.4;" xml:space="preserve">
<style type="text/css">
	.st0{fill:#FF0000;}
</style>
<g>
	<g>
		<path class="st0" d="M17.6,156.6c0-47.3,0-94.6,0-141.8c5.9,1.3,8.9,1.9,14.8,3.1c7.3,23.7,15,47.3,23.1,70.5
			c0-22.1,0-44.1,0-66.2c7,1.2,10.5,1.8,17.5,2.9c0,40.4,0,80.8,0,121.1c-5.7,0.9-8.5,1.4-14.2,2.4c-8.2-23.1-15.8-46.5-23.1-70
			c0,24.8,0,49.5,0,74.3C28.5,154.3,24.8,155.1,17.6,156.6z"/>
		<path class="st0" d="M88.9,143.9c0-38.8,0-77.6,0-116.3c15.2,2.2,30.4,4,45.6,5.5c0,5.9,0,8.9,0,14.8c-9.7-0.7-14.6-1.1-24.3-1.9
			c0,11.8,0,17.6,0,29.4c7.5,0.2,11.2,0.3,18.7,0.4c0,6,0,9.1,0,15.1c-7.5,0.1-11.2,0.1-18.7,0.2c0,13.9,0,20.8,0,34.7
			c9.8-0.9,14.7-1.3,24.5-1.9c0,5.8,0,8.7,0,14.6C119.4,139.9,104.1,141.7,88.9,143.9z"/>
		<path class="st0" d="M155.3,136.6c0-28.8,0-57.5,0-86.3c-6.5-0.3-9.7-0.5-16.2-1c0-6.3,0-9.5,0-15.9c17.8,1.5,35.7,2.7,53.6,3.6
			c0,5.9,0,8.9,0,14.8c-6.4-0.2-9.6-0.3-15.9-0.5c0,28,0,55.9,0,83.9C168.1,135.6,163.8,135.9,155.3,136.6z"/>
		<path class="st0" d="M202.1,134c0-32.2,0-64.4,0-96.7c14.8,0.5,29.5,0.6,44.3,0.4c0,5.3,0,8,0,13.3c-9.2,0.1-13.8,0.1-22.9,0
			c0,10.4,0,15.5,0,25.9c7.8,0,11.7,0,19.4,0c0,5.4,0,8.2,0,13.6c-7.8,0-11.7,0-19.4,0c0,17.2,0,25.8,0,43
			C214.9,133.7,210.7,133.8,202.1,134z"/>
		<path class="st0" d="M256.6,133.8c0-32.1,0-64.1,0-96.2c15.2-0.3,30.5-1,45.7-2.1c0,5.6,0,8.5,0,14.1c-9.7,0.5-14.6,0.7-24.3,1
			c0,10.4,0,15.5,0,25.9c7.5-0.1,11.3-0.1,18.8-0.2c0,5.7,0,8.5,0,14.1c-7.5,0-11.3-0.1-18.8-0.1c0,12.2,0,18.4,0,30.6
			c9.8,0.3,14.8,0.5,24.6,1c0,5.6,0,8.3,0,13.9C287.3,134.8,271.9,134.1,256.6,133.8z"/>
		<path class="st0" d="M313.3,136.7c0-34,0-67.9,0-101.9c8.5-0.7,12.8-1,21.3-1.9c0,30.4,0,60.7,0,91.1c9.8,0.7,14.7,1.1,24.5,2
			c0,6.1,0,9.2,0,15.4C343.9,139.4,328.6,137.9,313.3,136.7z"/>
		<path class="st0" d="M368.7,142.5c0-37.9,0-75.8,0-113.6c8.5-1.1,12.7-1.7,21.1-3c0,39.9,0,79.8,0,119.7
			C381.4,144.3,377.2,143.6,368.7,142.5z"/>
		<path class="st0" d="M402,147.5c0-6.2,0-9.3,0-15.6c9.5-31.1,18.1-62.7,26.5-94.4c-10.1,1.4-15.1,2.1-25.2,3.3
			c0-6.9,0-10.3,0-17.1c15.5-2.6,31-5.6,46.4-8.9c0,6.3,0,9.5,0,15.8C441.1,65,432.1,99.1,422.4,133c11,1.5,16.4,2.3,27.4,4
			c0,7.8,0,11.8,0,19.6C433.9,153.2,418,150.2,402,147.5z"/>
	</g>
</g>
</svg>
